<svg id="eaC5UexcfHk1" xmlns="http://www.w3.org/2000/svg" xmlns:xlink="http://www.w3.org/1999/xlink" viewBox="0 0 47.500000 47.500000" shape-rendering="geometricPrecision" text-rendering="geometricPrecision"><g id="eaC5UexcfHk2" transform="matrix(1.25000000000000 0 0 -1.25000000000000 0 47.50000000000000)"><g id="eaC5UexcfHk3" transform="matrix(1 0 0 1 0.00022411600001 0.02400016799999)" clip-path="url(#eaC5UexcfHk7)"><g id="eaC5UexcfHk4"><g id="eaC5UexcfHk5"><path id="eaC5UexcfHk6" d="M0,0C-2.266000,3.135000,-6.545000,6.934000,-14.066000,7.232000L-14.438000,7.248000L-14.564000,6.897000C-14.627000,6.721000,-14.866000,6.378000,-15.096000,6.046000C-15.775000,5.067000,-16.706000,3.727000,-16.309000,2.526000C-16.087000,1.857000,-15.494000,1.355000,-14.545000,1.035000C-12.652000,0.396000,-8.716000,-2.827000,-7.943000,-6.710000C-7.729000,-7.786000,-7.788000,-8.821000,-8.088000,-9.815000C-9.712000,-6.784000,-12.654000,-4.877000,-16.246000,-4.877000C-22.060000,-4.877000,-25.773000,-9.664000,-25.773000,-15.547000C-25.773000,-20.629000,-22.060000,-26.218000,-16.246000,-26.218000C-16.216000,-26.218000,-16.188000,-26.214000,-16.159000,-26.214000L-16.068000,-26.220000C-15.466000,-26.263000,-14.459000,-26.333000,-13.242000,-26.333000C-7.156000,-26.333000,0.596000,-24.604000,2.959000,-16.366000C4.514000,-10.946000,3.381000,-4.675000,0,0" transform="matrix(0.99999831895367 -0.00183360023657 0.00183360023657 0.99999831895367 31.41377587999999 27.69599983200004)" fill="rgb(255,172,51)" stroke="none" stroke-width="1"/></g></g><clipPath id="eaC5UexcfHk7"><path id="eaC5UexcfHk8" d="M0,38L38,38L38,0L0,0L0,38Z" transform="matrix(1 0 0 1 -0.00022412000002 -0.02400016799996)" fill="rgb(0,0,0)" stroke="none" stroke-width="1"/></clipPath></g><g id="eaC5UexcfHk9" clip-path="url(#eaC5UexcfHk14)"><g id="eaC5UexcfHk10"><path id="eaC5UexcfHk11" d="M0,0C2.286000,-3.431000,4.234000,-10.840000,-2.795000,-12.915000C-2.965000,-13.551000,0.110000,-14.385000,2.815000,-11.454000C5.864000,-8.151000,6.055000,0.169000,-0.974000,5.843000C-5.547000,7.156000,0,0,0,0" transform="matrix(1 0 0 1 22.70600000000000 19.11700000000000)" fill="rgb(244,144,12)" stroke="none" stroke-width="1"/><path id="eaC5UexcfHk12" d="M0,0C1.655000,0.752000,4.002000,2.667000,4.764000,4.509000C5.526000,6.351000,7.241000,3.049000,5.526000,1.461000C4.446000,0.381000,1.207000,-1.017000,-0.381000,-1.207000C-1.969000,-1.397000,-1.397000,-0.636000,0,0" transform="matrix(1 0 0 1 32.25400000000000 13.95100000000000)" fill="rgb(244,144,12)" stroke="none" stroke-width="1"/><path id="eaC5UexcfHk13" d="M0,0C0.381000,-3.176000,1.334000,-7.558000,-0.890000,-9.591000C-3.112000,-11.623000,-0.789000,-10.924000,0.508000,-10.099000C2.604000,-8.765000,3.176000,-5.780000,2.477000,-4.001000C1.778000,-2.223000,0,0,0,0" transform="matrix(1 0 0 1 31.87300000000000 30.59200000000000)" fill="rgb(244,144,12)" stroke="none" stroke-width="1"/></g><clipPath id="eaC5UexcfHk14"><path id="eaC5UexcfHk15" d="M16.850000,34.618000C16.787000,34.441000,16.548000,34.098000,16.318000,33.766000L16.318000,33.766000C15.638000,32.788000,14.709000,31.447000,15.106000,30.246000L15.106000,30.246000C15.327000,29.577000,15.920000,29.075000,16.869000,28.755000L16.869000,28.755000C18.761000,28.116000,22.698000,24.894000,23.471000,21.010000L23.471000,21.010000C23.685000,19.934000,23.626000,18.899000,23.326000,17.906000L23.326000,17.906000C21.702000,20.936000,18.760000,22.843000,15.169000,22.843000L15.169000,22.843000C9.355000,22.843000,5.641000,18.057000,5.641000,12.173000L5.641000,12.173000C5.641000,7.218000,9.355000,1.502000,15.169000,1.502000L15.169000,1.502000C15.197000,1.502000,15.226000,1.506000,15.255000,1.506000L15.255000,1.506000L15.346000,1.500000C15.948000,1.457000,16.954000,1.387000,18.172000,1.387000L18.172000,1.387000C24.258000,1.387000,32.009000,3.116000,34.373000,11.354000L34.373000,11.354000C35.928000,16.774000,34.795000,23.044000,31.415000,27.720000L31.415000,27.720000C29.148000,30.855000,24.869000,34.654000,17.348000,34.952000L17.348000,34.952000L16.976000,34.968000L16.850000,34.618000Z" fill="rgb(0,0,0)" stroke="none" stroke-width="1"/></clipPath></g><g id="eaC5UexcfHk16" display="none" clip-path="url(#eaC5UexcfHk19)"><g id="eaC5UexcfHk17"><path id="eaC5UexcfHk18" d="M0,0C2.350000,-3.684000,12.576000,-1.313000,0.212000,-5.674000C-4.891000,-6.923000,0,0,0,0" transform="matrix(1 0 0 1 2.84600000000000 33.51400000000000)" fill="rgb(234,89,110)" stroke="none" stroke-width="1"/></g><clipPath id="eaC5UexcfHk19"><path id="eaC5UexcfHk20" d="M5.764000,36.562000C4.343000,36.497000,3.257000,35.771000,2.997000,34.714000L2.997000,34.714000C2.875000,34.216000,2.787000,32.943000,4.621000,31.874000L4.621000,31.874000C5.172000,31.552000,5.508000,31.213000,5.520000,30.966000L5.520000,30.966000C5.531000,30.731000,5.259000,30.254000,4.458000,29.683000L4.458000,29.683000C3.664000,29.116000,3.339000,28.241000,3.608000,27.399000L3.608000,27.399000C3.939000,26.365000,5.076000,25.672000,6.436000,25.672000L6.436000,25.672000C7.180000,25.672000,7.949000,25.868000,8.721000,26.253000L8.721000,26.253000C10.717000,27.251000,13.404000,27.896000,15.565000,27.896000L15.565000,27.896000C16.631000,27.896000,17.536000,27.746000,18.254000,27.451000L18.254000,27.451000C18.617000,27.301000,18.971000,27.226000,19.307000,27.226000L19.307000,27.226000L19.308000,27.226000C19.927000,27.226000,20.480000,27.475000,20.907000,27.948000L20.907000,27.948000C22.243000,29.424000,21.965000,32.928000,21.895000,33.615000L21.895000,33.615000C21.853000,34.049000,21.538000,34.406000,21.113000,34.504000L21.113000,34.504000C19.518000,34.872000,8.344000,36.565000,5.960000,36.565000L5.960000,36.565000L5.764000,36.562000Z" fill="rgb(0,0,0)" stroke="none" stroke-width="1"/></clipPath></g></g></svg>